<?xml version="1.0" encoding="UTF-8"?>
<svg width="150px" height="35px" viewBox="0 0 150 35" version="1.1" xmlns="http://www.w3.org/2000/svg" xmlns:xlink="http://www.w3.org/1999/xlink">
    <!-- Generator: Sketch 54.1 (76490) - https://sketchapp.com -->
    <title>User Forntend Logo Color</title>
    <desc>Created with Sketch.</desc>
    <g id="Page-1" stroke="none" stroke-width="1" fill="none" fill-rule="evenodd">
        <g id="Home-Page-Design---WeDevs-U3" transform="translate(-508.000000, -1178.000000)" fill-rule="nonzero">
            <g id="User-Forntend-Logo-Color" transform="translate(508.000000, 1178.000000)">
                <g id="Icon">
                    <path d="M26.9957865,17.77 L26.9957865,23.055 C26.9957865,26.0925661 24.5172131,28.555 21.4597378,28.555 C18.4022626,28.555 15.9236891,26.0925661 15.9236891,23.055 L15.9236891,17.77 L9.82397004,17.77 L9.82397004,23.055 C9.73630081,27.2431995 11.9351714,31.1510731 15.5721208,33.2707201 C19.2090703,35.390367 23.7154382,35.390367 27.3523876,33.2707201 C30.989337,31.1510731 33.1882076,27.2431995 33.1005384,23.055 L33.1005384,17.77 L26.9957865,17.77 Z" id="Shape" fill="#23B89A"></path>
                    <polygon id="Shape" fill="#94A4A4" points="15.9186564 0.21 0.317064607 0.21 2.14899345 6.27 15.9186564 6.27"></polygon>
                    <path d="M36.7945927,0.21 L26.9957865,0.21 L26.9957865,6.27 L36.7945927,6.27 C37.6284496,6.27 38.3044242,6.94157288 38.3044242,7.77 C38.3044242,8.59842712 37.6284496,9.27 36.7945927,9.27 L26.9957865,9.27 L26.9957865,15.33 L36.7945927,15.33 C41.0027905,15.33 44.4142088,11.9407956 44.4142088,7.76 C44.4142088,3.57920444 41.0027905,0.19 36.7945927,0.19 L36.7945927,0.21 Z" id="Shape" fill="#94A4A4"></path>
                    <polygon id="Shape" fill="#94A4A4" points="15.9186564 9.29 3.37195693 9.29 5.20388577 15.345 15.9186564 15.345"></polygon>
                </g>
                <g id="Text" transform="translate(48.958333, 1.029412)">
                    <path d="M19.0078383,16.0597187 L13.9157384,16.0597187 L12.3901093,9.22129156 C12.3167457,8.93574169 12.2016983,8.36628303 12.044967,7.5129156 C11.8882357,6.65954817 11.7731883,5.94731458 11.6998247,5.37621483 C11.6397999,5.84228474 11.5447607,6.41994885 11.4147071,7.10920716 C11.2846535,7.79846547 11.1562672,8.43356777 11.0295483,9.01451407 C10.9028293,9.59546036 10.3742781,11.9438619 9.44389439,16.0597187 L4.35179455,16.0597187 L0.405167079,0.364322251 L4.56188119,0.364322251 L6.29759695,8.2415601 C6.69109255,9.98111679 6.95953658,11.3661978 7.10292904,12.3968031 C7.19630088,11.6681586 7.3630363,10.6835038 7.60313531,9.44283887 C7.84323432,8.20217391 8.0699945,7.16500426 8.28341584,6.33132992 L9.68899546,0.393861893 L13.6906456,0.393861893 L15.0562087,6.33132992 C15.2896383,7.28316283 15.5264026,8.38105286 15.7665017,9.625 C16.0066007,10.8689471 16.1733361,11.7994459 16.2667079,12.4164962 C16.3600798,11.622208 16.6185197,10.2436914 17.0420276,8.28094629 L18.8077558,0.40370844 L22.9644699,0.40370844 L19.0078383,16.0597187 Z" id="Shape" fill="#23B89A"></path>
                    <path d="M36.5500722,5.35652174 C36.5500722,7.10920716 36.0248556,8.46310742 34.9744224,9.41822251 C33.9239893,10.3733376 32.4233705,10.8508951 30.472566,10.8508951 L29.2620668,10.8508951 L29.2620668,16.0597187 L24.9552908,16.0597187 L24.9552908,0.364322251 L30.4575598,0.364322251 C32.4583849,0.364322251 33.9706752,0.797570332 34.9944307,1.6640665 C36.0535473,2.60005964 36.6254426,3.9575046 36.5500722,5.35652174 Z M29.2870771,7.39475703 L30.072401,7.39475703 C30.6377584,7.42288731 31.1915079,7.23000432 31.6130363,6.8581202 C32.0060706,6.46655202 32.2146685,5.93095501 32.1882735,5.38113811 C32.1882735,4.32099318 31.5913607,3.79092072 30.3975351,3.79092072 L29.2870771,3.79092072 L29.2870771,7.39475703 Z" id="Shape" fill="#23B89A"></path>
                    <path d="M58.4541048,0.364322251 L58.4541048,9.8120844 C58.4541048,11.8667306 57.8638614,13.456948 56.6833746,14.5827366 C55.5028878,15.7085251 53.7988518,16.2714194 51.5712665,16.2714194 C49.3970366,16.2714194 47.7296823,15.723295 46.5692038,14.627046 C45.4087252,13.5307971 44.8251513,11.9569906 44.8184818,9.9056266 L44.8184818,0.359398977 L49.1502682,0.359398977 L49.1502682,9.57084399 C49.1502682,10.6802217 49.3603548,11.4859974 49.7805281,11.9881714 C50.836172,12.9885284 52.5064435,12.9885284 53.5620875,11.9881714 C53.9589178,11.4892796 54.1573329,10.668734 54.1573329,9.52653453 L54.1573329,0.334782609 L58.4541048,0.364322251 Z" id="Shape" fill="#23B89A"></path>
                    <path d="M72.2297855,11.2939898 C72.2467098,12.2129527 71.9855322,13.1161033 71.4794761,13.888555 C70.9453272,14.6712999 70.190918,15.2837986 69.3085809,15.651087 C68.2577677,16.0910309 67.1238657,16.3058479 65.9822092,16.281266 C65.0865715,16.295044 64.1917719,16.2208272 63.3111077,16.0597187 C62.5338998,15.89322 61.7798475,15.6353596 61.0651815,15.291688 L61.0651815,11.5106138 C61.880616,11.9280716 62.7392187,12.2581805 63.6262376,12.4952685 C64.4211296,12.7151702 65.2416428,12.8326678 66.0672442,12.844821 C66.5592287,12.881491 67.0505806,12.7661812 67.4728238,12.5149616 C67.757902,12.3278856 67.9258789,12.0102271 67.9180074,11.6730818 C67.9227252,11.4700215 67.8594486,11.2710716 67.7379332,11.1069054 C67.5767299,10.9092591 67.3800632,10.7423893 67.1576939,10.614578 C66.8909172,10.4504689 66.183959,10.1222506 65.0368193,9.62992327 C64.198436,9.28380575 63.4110769,8.82843565 62.695854,8.27602302 C62.1989866,7.869148 61.8036713,7.35541637 61.5403775,6.77442455 C61.2760209,6.13745982 61.1482969,5.45358552 61.1652228,4.7657289 C61.1042566,3.447302 61.7043026,2.1833195 62.7708849,1.3834399 C63.8413263,0.576023018 65.3102654,0.172314578 67.1777021,0.172314578 C68.9237189,0.192811975 70.6455269,0.577052961 72.2297855,1.29974425 L70.9092409,4.57372123 C69.7066168,3.98213971 68.3908327,3.64663225 67.0476485,3.5890665 C66.6196859,3.55447732 66.1917709,3.65631876 65.8271452,3.87953964 C65.5887256,4.04362163 65.4467869,4.31199838 65.4469884,4.5983376 C65.4660598,4.93802525 65.6529136,5.24699494 65.9471947,5.42544757 C66.7884508,5.93705454 67.669961,6.38156845 68.5832818,6.75473146 C69.6851273,7.17312971 70.6670675,7.84898518 71.4444616,8.72404092 C71.9808,9.47499881 72.2562571,10.3764239 72.2297855,11.2939898 L72.2297855,11.2939898 Z" id="Shape" fill="#23B89A"></path>
                    <polygon id="Shape" fill="#23B89A" points="84.1647071 16.0597187 74.6958024 16.0597187 74.6958024 0.364322251 84.1647071 0.364322251 84.1647071 3.76630435 79.0075804 3.76630435 79.0075804 6.22794118 83.7845503 6.22794118 83.7845503 9.62992327 79.0075804 9.62992327 79.0075804 12.5838875 84.1647071 12.5838875"></polygon>
                    <path d="M91.2676361,10.3388747 L91.2676361,16.0498721 L86.9608601,16.0498721 L86.9608601,0.354475703 L92.1880157,0.354475703 C96.5231367,0.354475703 98.6906972,1.90038363 98.6906972,4.99219949 C98.6906972,6.81052856 97.7886586,8.21694373 95.9845813,9.21144501 L100.631498,16.0498721 L95.7444823,16.0498721 L92.3630879,10.3388747 L91.2676361,10.3388747 Z M91.2676361,7.14859335 L92.0729682,7.14859335 C93.5769218,7.14859335 94.3288985,6.49215686 94.3288985,5.17928389 C94.3288985,4.09944587 93.5902606,3.55952685 92.1129847,3.55952685 L91.2626341,3.55952685 L91.2676361,7.14859335 Z" id="Shape" fill="#23B89A"></path>
                    <polygon id="Shape" fill="#94A4A4" points="3.50144389 33.4142583 0.725299092 33.4142583 0.725299092 20.3232737 8.34844266 20.3232737 8.34844266 22.5978261 3.50144389 22.5978261 3.50144389 25.9751918 8.00330033 25.9751918 8.00330033 28.2398977 3.50144389 28.2398977"></polygon>
                    <path d="M13.7556724,28.3925192 L13.7556724,33.4142583 L10.9345091,33.4142583 L10.9345091,20.3232737 L14.8111077,20.3232737 C16.6185197,20.3232737 17.9524031,20.6514919 18.8127578,21.3079284 C20.2574755,22.5886349 20.5358414,24.7156493 19.4680281,26.3148977 C19.0016709,26.9417166 18.3679779,27.4290977 17.6372731,27.722954 C19.6380982,30.6769182 20.9419692,32.5789429 21.5488861,33.4290281 L18.4175949,33.4290281 L15.2412851,28.407289 L13.7556724,28.3925192 Z M13.7556724,26.1376598 L14.6660479,26.1376598 C15.3542628,26.1881533 16.0421507,26.0356022 16.6418626,25.6994885 C17.0802321,25.3779638 17.3201264,24.8573937 17.2771246,24.3209719 C17.3247274,23.7953341 17.0748857,23.286497 16.6268564,22.9966113 C16.006447,22.6951878 15.3165043,22.5593728 14.6260314,22.6027494 L13.7706786,22.6027494 L13.7556724,26.1376598 Z" id="Shape" fill="#94A4A4"></path>
                    <path d="M35.3095606,26.8515345 C35.3095606,29.0177749 34.7643358,30.6834825 33.6738861,31.8486573 C32.5834365,33.0138321 31.0177908,33.5964194 28.9769493,33.5964194 C26.9394424,33.5964194 25.3737968,33.0138321 24.2800124,31.8486573 C23.186228,30.6834825 22.6410032,29.0112106 22.6443379,26.8318414 C22.6443379,24.6524723 23.1912301,22.9884058 24.2850144,21.8396419 C25.3787988,20.6908781 26.9477792,20.1164962 28.9919554,20.1164962 C31.0361317,20.1164962 32.60011,20.6958014 33.6838903,21.8544118 C34.7676705,23.0130222 35.3095606,24.6787298 35.3095606,26.8515345 Z M25.6005569,26.8515345 C25.6005569,28.3153879 25.8823398,29.4165601 26.4459055,30.1550512 C27.0513048,30.9138598 27.9989916,31.3286244 28.9769493,31.2627877 C31.2278775,31.2627877 32.3533416,29.7858056 32.3533416,26.8318414 C32.3533416,23.8778772 31.2345469,22.4008951 28.9969575,22.4008951 C28.0176429,22.3414679 27.0706508,22.7569494 26.4609117,23.513555 C25.8906766,24.2750213 25.6038916,25.3876812 25.6005569,26.8515345 L25.6005569,26.8515345 Z" id="Shape" fill="#94A4A4"></path>
                    <path d="M49.8655631,33.4142583 L46.2790842,33.4142583 L40.5167079,23.513555 L40.4366749,23.513555 C40.5533897,25.2629582 40.6117471,26.5101876 40.6117471,27.255243 L40.6117471,33.4142583 L38.1107158,33.4142583 L38.1107158,20.3232737 L41.6671823,20.3232737 L47.4445648,30.1304348 L47.5095916,30.1304348 C47.4195545,28.4302643 47.3745359,27.2273444 47.3745359,26.5216752 L47.3745359,20.3232737 L49.9105817,20.3232737 L49.8655631,33.4142583 Z" id="Shape" fill="#94A4A4"></path>
                    <polygon id="Shape" fill="#94A4A4" points="58.3440594 33.4142583 55.522896 33.4142583 55.522896 22.6470588 51.9114068 22.6470588 51.9114068 20.3380435 61.9555487 20.3380435 61.9555487 22.6470588 58.3440594 22.6470588"></polygon>
                    <polygon id="Shape" fill="#94A4A4" points="71.6645524 33.4142583 64.0264026 33.4142583 64.0264026 20.3232737 71.6845606 20.3232737 71.6845606 22.5978261 66.8425639 22.5978261 66.8425639 25.4730179 71.3444204 25.4730179 71.3444204 27.7475703 66.8425639 27.7475703 66.8425639 31.1249361 71.6845606 31.1249361"></polygon>
                    <path d="M86.2405631,33.4142583 L82.6540842,33.4142583 L76.8666976,23.5086317 L76.7866646,23.5086317 C76.9033794,25.258035 76.9617368,26.5052643 76.9617368,27.2503197 L76.9617368,33.409335 L74.4607054,33.409335 L74.4607054,20.3183504 L78.017172,20.3183504 L83.7945545,30.1255115 L83.8595813,30.1255115 C83.7695441,28.425341 83.7245256,27.2224211 83.7245256,26.5167519 L83.7245256,20.3183504 L86.2605714,20.3183504 L86.2405631,33.4142583 Z" id="Shape" fill="#94A4A4"></path>
                    <path d="M100.626495,26.7432225 C100.626495,28.8996164 100.002905,30.5505541 98.755724,31.6960358 C97.508543,32.8415175 95.7094678,33.4142583 93.3584983,33.4142583 L89.5919451,33.4142583 L89.5919451,20.3232737 L93.7686675,20.3232737 C95.9395627,20.3232737 97.6252578,20.887809 98.8257529,22.0168798 C100.026248,23.1459506 100.626495,24.7213981 100.626495,26.7432225 Z M97.6952867,26.8170716 C97.6952867,24.0042413 96.4330996,22.5978261 93.9087252,22.5978261 L92.4081064,22.5978261 L92.4081064,31.1200184 L93.6186056,31.1200128 C96.336393,31.123295 97.6952867,29.6889812 97.6952867,26.8170716 Z" id="Shape" fill="#94A4A4"></path>
                </g>
            </g>
        </g>
    </g>
</svg>